<svg width="140" height="87" viewBox="0 0 140 87" fill="none" xmlns="http://www.w3.org/2000/svg">
<path fill-rule="evenodd" clip-rule="evenodd" d="M23.3962 46.0399L23.3452 47.7399C22.1078 46.9975 20.7629 46.4513 19.3582 46.1209C17.7682 45.7235 16.1351 45.525 14.4962 45.5299C12.2314 45.5382 10.0228 46.2358 8.16418 47.5299C6.17587 48.866 4.54282 50.6662 3.40618 52.7749C2.24968 54.8325 1.63865 57.1516 1.63118 59.5119C1.60549 61.6798 2.19495 63.8105 3.33117 65.6569C4.45838 67.4871 6.0582 68.9795 7.96218 69.9769C9.92429 71.0249 12.1178 71.5644 14.3422 71.5459C15.8653 71.5204 17.3754 71.26 18.8192 70.7739C20.2942 70.3245 21.6974 69.6665 22.9862 68.8199V69.5399C23.0431 71.4008 22.5894 73.2417 21.6742 74.8629C20.7648 76.4569 19.0928 77.2539 16.6582 77.2539C15.4065 77.2803 14.1768 76.923 13.1342 76.2299C12.656 75.9282 12.2616 75.5108 11.9874 75.0163C11.7132 74.5219 11.568 73.9663 11.5652 73.4009L2.04518 70.2649C1.99019 73.123 2.67245 75.9471 4.02618 78.4649C5.29761 80.799 7.20467 82.7247 9.52618 84.0189C12.0084 85.3713 14.8 86.0537 17.6262 85.9989C21.2262 85.9989 24.0558 85.1163 26.1152 83.3509C28.0291 81.791 29.4792 79.7367 30.3082 77.4109C30.9788 75.5593 31.3691 73.6179 31.4662 71.6509L31.7752 46.0399H23.3962ZM15.5762 63.7819C14.9572 63.7934 14.3434 63.668 13.7786 63.4145C13.2138 63.1611 12.712 62.7859 12.3092 62.3159C11.4147 61.2847 10.9457 59.952 10.9972 58.5879C10.9432 57.2319 11.413 55.9071 12.3092 54.8879C12.7326 54.4175 13.2534 54.045 13.8354 53.7963C14.4174 53.5476 15.0466 53.4287 15.6792 53.4479C16.3378 53.433 16.9926 53.5531 17.6031 53.8007C18.2136 54.0484 18.767 54.4184 19.2292 54.8879C19.7022 55.358 20.0741 55.9198 20.3219 56.5389C20.5697 57.158 20.6883 57.8213 20.6702 58.4879C20.679 59.8695 20.1429 61.1989 19.1782 62.1879C18.7267 62.6952 18.1718 63.1 17.5509 63.3749C16.9299 63.6499 16.2573 63.7887 15.5782 63.7819H15.5762ZM51.4862 45.9369L51.4352 58.0739V58.0229C51.4964 59.5302 51.0726 61.0173 50.2262 62.2659C49.8615 62.7397 49.4017 63.1319 48.8765 63.4175C48.3512 63.7031 47.7721 63.8756 47.1762 63.9241C46.5803 63.9726 45.9808 63.896 45.4163 63.6991C44.8518 63.5022 44.3347 63.1895 43.8982 62.7809C43.1405 61.848 42.7636 60.6631 42.8432 59.4639L42.8942 45.8299H33.3762L33.2222 59.9719C33.1555 64.4973 34.0132 67.9343 35.7952 70.2829C37.5772 72.6316 40.2355 73.8056 43.7702 73.8049C45.2534 73.8168 46.7236 73.528 48.0922 72.9559C49.3569 72.4426 50.4844 71.6414 51.3852 70.6159V73.1359H61.1602V45.9359L51.4862 45.9369ZM79.3702 45.7309C78.1623 45.7388 76.9668 45.9743 75.8462 46.4249C74.6847 46.8739 73.6129 47.5268 72.6812 48.3529V45.9869H63.1122V73.3969H72.6812V63.5299C72.8185 60.5473 73.3415 58.3959 74.2502 57.0759C74.7129 56.4185 75.3369 55.8911 76.0623 55.5443C76.7876 55.1976 77.5899 55.0432 78.3922 55.0959C79.1878 55.0712 79.9768 55.2466 80.687 55.606C81.3972 55.9654 82.0059 56.4973 82.4572 57.1529L86.0072 49.1819C85.1667 48.1275 84.1152 47.2604 82.9202 46.6359C81.8266 46.0544 80.6087 45.7457 79.3702 45.7359V45.7309ZM104.683 45.9369L104.632 58.0739V58.0229C104.693 59.5302 104.27 61.0173 103.423 62.2659C103.058 62.7397 102.599 63.1319 102.073 63.4175C101.548 63.7031 100.969 63.8756 100.373 63.9241C99.7773 63.9726 99.1778 63.896 98.6133 63.6991C98.0488 63.5022 97.5317 63.1895 97.0952 62.7809C96.3375 61.848 95.9606 60.6631 96.0402 59.4639L96.0912 45.8359H86.5732L86.4192 59.9779C86.3525 64.5033 87.2102 67.9403 88.9922 70.2889C90.7742 72.6376 93.4322 73.8116 96.9662 73.8109C98.449 73.8229 99.9189 73.5345 101.287 72.9629C102.552 72.4497 103.68 71.6485 104.58 70.6229V73.1429H114.356V45.9429L104.683 45.9369ZM122.117 44.0369C122.625 44.0463 123.128 43.9411 123.589 43.7292C124.05 43.5173 124.458 43.2041 124.781 42.8129C125.488 41.9961 125.865 40.9456 125.84 39.8659C125.88 39.3894 125.815 38.91 125.65 38.4611C125.486 38.0121 125.225 37.6044 124.887 37.2664C124.549 36.9284 124.141 36.6682 123.692 36.5039C123.243 36.3395 122.764 36.2751 122.287 36.3149C121.775 36.2916 121.263 36.3711 120.783 36.5487C120.302 36.7262 119.861 36.9983 119.487 37.3489C119.134 37.6993 118.858 38.1193 118.675 38.5822C118.493 39.0451 118.409 39.5408 118.428 40.0379C118.415 40.5604 118.504 41.0804 118.692 41.5682C118.879 42.0561 119.161 42.5021 119.521 42.8809C119.848 43.247 120.248 43.5393 120.697 43.7385C121.145 43.9376 121.631 44.039 122.121 44.0359L122.117 44.0369ZM114.869 85.9959C117.611 86.1558 120.314 85.2948 122.458 83.5789C124.438 81.7142 125.787 79.2785 126.317 76.6109C127.125 72.8529 127.48 69.0114 127.372 65.1689L127.272 45.5239L117.034 45.8329L116.934 63.3689V64.8609C116.9 67.2956 116.823 69.1812 116.703 70.5179C116.618 71.7233 116.304 72.9014 115.777 73.9889C115.554 74.4533 115.227 74.8598 114.821 75.1766C114.415 75.4934 113.941 75.7119 113.436 75.8149C113.147 75.8689 112.855 75.9023 112.561 75.9149C111.899 75.9231 111.257 75.6847 110.761 75.2459L107.571 84.0399C109.741 85.4424 112.297 86.126 114.877 85.9939L114.869 85.9959ZM134.658 44.3379C135.16 44.3494 135.658 44.2531 136.119 44.0556C136.58 43.8581 136.993 43.5639 137.331 43.1929C138.053 42.4032 138.437 41.3622 138.4 40.2929C138.421 39.8219 138.345 39.3515 138.175 38.9116C138.005 38.4716 137.746 38.0717 137.414 37.7369C137.069 37.4113 136.662 37.1584 136.217 36.9931C135.772 36.8279 135.298 36.7537 134.824 36.7749C133.751 36.7516 132.708 37.1304 131.9 37.8369C131.511 38.1599 131.2 38.5662 130.989 39.0257C130.778 39.4853 130.673 39.9863 130.681 40.4919C130.681 41.1774 130.885 41.8475 131.266 42.4169C131.643 43.0031 132.158 43.4877 132.766 43.8279C133.34 44.1605 133.991 44.3377 134.654 44.3419L134.658 44.3379ZM129.943 73.2379H139.873V45.9889H129.121L129.943 73.2379Z" fill="white"/>
<path fill-rule="evenodd" clip-rule="evenodd" d="M19.7021 31.846L10.4651 30.005L9.32307 34.997L14.2901 35.945C14.1003 36.4824 13.717 36.9298 13.2151 37.2C12.6652 37.5571 12.0554 37.8122 11.4151 37.953C11.1488 38.0076 10.8779 38.0357 10.6061 38.037C9.53176 38.0381 8.49641 37.6346 7.70607 36.907C7.15326 36.445 6.70911 35.8669 6.40525 35.2137C6.10139 34.5605 5.94529 33.8484 5.94807 33.128C5.94206 32.0468 6.28972 30.9932 6.93807 30.128C7.54063 29.265 8.43983 28.6542 9.46407 28.412C9.87657 28.3209 10.2976 28.2743 10.7201 28.273C11.4074 28.273 12.0905 28.3813 12.7441 28.594C13.3387 28.7718 13.8856 29.0815 14.3441 29.5L17.3021 24.926C16.4493 24.1894 15.4439 23.6512 14.3581 23.35C13.15 22.9861 11.8948 22.8028 10.6331 22.806C9.85578 22.8074 9.08035 22.882 8.31707 23.029C6.72777 23.3681 5.24377 24.0858 3.99107 25.121C2.74941 26.1468 1.74834 27.433 1.05869 28.8885C0.369035 30.3441 0.0076409 31.9333 7.29704e-05 33.544C-0.00252942 34.2277 0.0644826 34.9098 0.200073 35.58C0.543226 37.1949 1.26542 38.7051 2.30707 39.986C3.33527 41.2695 4.63644 42.308 6.11607 43.026C7.5651 43.7421 9.15975 44.1144 10.7761 44.114C11.461 44.1105 12.1436 44.0357 12.8131 43.891C14.2159 43.5986 15.5274 42.9719 16.6361 42.064C17.757 41.1608 18.6666 40.0231 19.3011 38.731C19.9274 37.4945 20.2571 36.129 20.2641 34.743C20.2766 33.7485 20.0868 32.7618 19.7061 31.843L19.7021 31.846ZM29.5531 29.057C28.8977 29.0614 28.2491 29.1893 27.6411 29.434C27.0114 29.6777 26.4302 30.0319 25.9251 30.48V29.197H20.7341V44.064H25.9231V38.709C25.8923 37.4876 26.186 36.2799 26.7741 35.209C27.0251 34.8525 27.3634 34.5665 27.7567 34.3784C28.15 34.1904 28.5851 34.1065 29.0201 34.135C29.4508 34.1226 29.8778 34.2182 30.262 34.4131C30.6463 34.608 30.9757 34.8961 31.2201 35.251L33.1461 30.928C32.6899 30.3563 32.1194 29.8863 31.4711 29.548C30.878 29.2327 30.2177 29.0653 29.5461 29.06L29.5531 29.057ZM48.3901 44.057L47.7481 29.248H43.1161V30.448C42.6863 29.9965 42.1554 29.6538 41.5671 29.448C40.911 29.2037 40.2161 29.0807 39.5161 29.085C38.231 29.0734 36.9672 29.4127 35.8608 30.0663C34.7543 30.7198 33.8472 31.6629 33.2371 32.794C32.5996 33.9657 32.2729 35.2811 32.2881 36.615C32.2747 37.9362 32.5912 39.24 33.2091 40.408C33.7875 41.5217 34.6429 42.4678 35.6931 43.155C36.7022 43.824 37.8873 44.1783 39.0981 44.173C39.8773 44.1735 40.651 44.0416 41.3861 43.783C42.0679 43.5576 42.7019 43.2077 43.2561 42.751L43.2841 44.062H48.3911L48.3901 44.057ZM40.0451 39.567C39.5627 39.562 39.0923 39.4167 38.6911 39.149C38.2525 38.8684 37.8887 38.4854 37.6311 38.033C37.3727 37.603 37.2345 37.1116 37.2311 36.61C37.2286 36.2202 37.3095 35.8344 37.4684 35.4784C37.6272 35.1224 37.8603 34.8045 38.1521 34.546C38.7263 33.9855 39.4987 33.6746 40.3011 33.681C40.6469 33.6718 40.9908 33.7354 41.3105 33.8675C41.6302 33.9996 41.9186 34.1974 42.1571 34.448C42.4012 34.7012 42.5923 35.0005 42.7194 35.3284C42.8465 35.6564 42.9069 36.0064 42.8971 36.358C42.899 36.9075 42.7647 37.449 42.5061 37.934C42.2586 38.4122 41.8939 38.8199 41.4461 39.119C41.0352 39.4056 40.5471 39.5611 40.0461 39.565L40.0451 39.567ZM58.6031 28.889C57.7798 28.889 56.9645 29.05 56.2031 29.363C55.3738 29.6718 54.6008 30.1147 53.9151 30.674L53.7151 29.196L49.1661 29.168V45.613H54.6921L54.4411 43.057C55.5035 43.5938 56.6845 43.8529 57.8741 43.81C59.0829 43.8333 60.2671 43.4666 61.2511 42.764C62.2428 42.0358 63.019 41.0527 63.4971 39.919C64.0383 38.6745 64.3109 37.3299 64.2971 35.973C64.3702 34.1771 63.8284 32.4101 62.7611 30.964C62.2715 30.3244 61.6425 29.8049 60.922 29.4448C60.2016 29.0847 59.4085 28.8936 58.6031 28.886V28.889ZM57.3231 39.264C56.9265 39.2676 56.5332 39.1917 56.1665 39.0407C55.7998 38.8898 55.4671 38.6668 55.1881 38.385C54.9004 38.121 54.671 37.7997 54.5148 37.4419C54.3586 37.084 54.279 36.6974 54.2811 36.307C54.2717 35.9516 54.3382 35.5983 54.4761 35.2707C54.6141 34.943 54.8203 34.6486 55.0811 34.407C55.62 33.9014 56.3375 33.6306 57.0761 33.654C57.4437 33.6387 57.8104 33.7017 58.1519 33.8388C58.4934 33.9758 58.8019 34.1838 59.0571 34.449C59.5764 35.0239 59.8471 35.7811 59.8101 36.555C59.85 37.2791 59.6045 37.9899 59.1261 38.535C58.8946 38.7776 58.6141 38.9682 58.3032 39.0939C57.9923 39.2196 57.6581 39.2776 57.3231 39.264ZM81.0711 44.064L81.0151 35.725C81.0947 33.9142 80.5477 32.1314 79.4661 30.677C78.9778 30.068 78.3538 29.5817 77.6439 29.2572C76.9341 28.9326 76.1581 28.7788 75.3781 28.808C74.4448 28.8126 73.5227 29.0122 72.6711 29.394C71.8417 29.7394 71.0984 30.2631 70.4941 30.928L70.3541 21.585H65.0541L65.4441 43.952L70.6911 44.036L70.5791 35.808C70.7349 35.2056 71.0901 34.6738 71.5867 34.2991C72.0833 33.9243 72.6921 33.7286 73.3141 33.744C73.6592 33.725 74.0047 33.7744 74.3307 33.8892C74.6567 34.004 74.9569 34.182 75.2141 34.413C75.4529 34.6539 75.6386 34.9422 75.7591 35.2593C75.8797 35.5764 75.9325 35.9152 75.9141 36.254V44.064H81.0711ZM81.9371 43.98H87.3231V30.04C86.1072 30.0689 84.8911 29.9903 83.6891 29.805C82.9478 29.6755 82.2135 29.5086 81.4891 29.305L81.9371 43.98ZM95.6371 44.259C96.8255 44.2399 97.9946 43.9559 99.0593 43.4275C100.124 42.8992 101.057 42.1399 101.791 41.205C102.456 40.3779 102.824 39.352 102.838 38.291L98.2061 37.845C98.009 38.2846 97.6829 38.6539 97.2711 38.904C96.8611 39.1745 96.3812 39.3197 95.8901 39.322C95.3905 39.3174 94.9023 39.1726 94.4811 38.904C94.0341 38.6327 93.6573 38.2599 93.3811 37.816C93.114 37.4099 92.9687 36.9359 92.9621 36.45C92.9661 36.0916 93.0466 35.7382 93.1982 35.4135C93.3498 35.0888 93.5689 34.8002 93.8411 34.567C94.3733 34.0399 95.092 33.7441 95.8411 33.744C96.3698 33.7408 96.8848 33.9124 97.3061 34.232C97.7414 34.5554 98.0598 35.0117 98.2131 35.532L102.901 35.114C102.895 33.9974 102.511 32.9159 101.812 32.045C101.061 31.0768 100.09 30.3023 98.9791 29.786C97.8718 29.2411 96.6552 28.9548 95.4211 28.949C94.1109 28.9347 92.822 29.2806 91.6951 29.949C90.5684 30.6169 89.6366 31.5687 88.9927 32.7092C88.3487 33.8497 88.0151 35.1392 88.0251 36.449C88.0199 37.8056 88.3765 39.139 89.0581 40.312C89.7277 41.4923 90.6886 42.4814 91.8491 43.185C92.9898 43.8926 94.3067 44.2648 95.6491 44.259H95.6371ZM115.618 31.235C114.734 30.4782 113.729 29.8748 112.646 29.45C111.613 29.033 110.51 28.8151 109.395 28.808C108.334 28.8039 107.285 29.0373 106.325 29.491C105.421 29.8978 104.627 30.5149 104.01 31.291C103.47 31.947 103.166 32.7649 103.146 33.6141C103.126 34.4634 103.39 35.2949 103.898 35.976C104.415 36.6948 105.102 37.2743 105.898 37.663C106.715 38.0789 107.619 38.2942 108.535 38.291C108.702 38.2943 108.869 38.2849 109.035 38.263C109.477 38.2423 109.919 38.2895 110.347 38.403C110.456 38.4262 110.554 38.4857 110.625 38.5718C110.696 38.6578 110.736 38.7654 110.738 38.877C110.738 39.1556 110.538 39.3926 110.138 39.588C109.678 39.7956 109.177 39.8958 108.673 39.881C108.073 39.88 107.477 39.7712 106.915 39.56C106.352 39.3547 105.832 39.0476 105.38 38.654L102.561 41.832C103.285 42.6455 104.194 43.2722 105.212 43.659C106.328 44.1143 107.523 44.3463 108.728 44.342C109.919 44.354 111.098 44.0966 112.175 43.589C113.168 43.1345 114.031 42.4395 114.687 41.567C115.294 40.7692 115.623 39.7944 115.622 38.792C115.644 38.1824 115.509 37.5775 115.23 37.0349C114.952 36.4922 114.539 36.0299 114.031 35.692C112.701 34.8751 111.152 34.4856 109.594 34.576C108.291 34.576 107.64 34.3426 107.641 33.876C107.641 33.616 107.823 33.4023 108.186 33.235C108.623 33.0534 109.094 32.9678 109.567 32.984C110.203 32.9911 110.835 33.0995 111.437 33.305C112.211 33.5745 112.959 33.9152 113.67 34.323L115.618 31.235Z" fill="white"/>
<path fill-rule="evenodd" clip-rule="evenodd" d="M81.707 28.4089C81.707 28.4089 74.9859 -0.968094 105.94 0.792906C107.412 0.869179 108.882 0.598937 110.231 0.00390625C110.231 0.00390625 109.717 0.620906 110.072 3.94991C110.072 3.94591 112.796 34.1839 81.707 28.4089Z" fill="white"/>
</svg>
